<svg width="30" height="30" viewBox="0 0 30 30" fill="none" xmlns="http://www.w3.org/2000/svg">
<rect width="30" height="30" rx="6" fill="#F27024" fill-opacity="0.2"/>
<path d="M21.4284 8.48571C19.1595 8.87142 16.5125 8.48571 14.9999 7.71428C13.4873 8.48571 10.8402 8.87142 8.57129 8.48571V16.9714C9.32759 19.2857 11.9747 22.3714 14.9999 23.1429C18.0251 22.3714 20.6721 19.2857 21.4284 16.9714V8.48571Z" fill="#F27024"/>
<path fill-rule="evenodd" clip-rule="evenodd" d="M12 12.2857H13.2353V11H12V12.2857ZM13.2353 14.6429H12V13.3571H13.2353V14.6429ZM13.2353 17H12V15.7143H13.2353V17ZM18 14.6429H14.2941V13.3571H18V14.6429ZM14.2941 17H18V15.7143H14.2941V17ZM14.2941 12.2857V11H18V12.2857H14.2941Z" fill="white"/>
</svg>
