<svg width="19" height="18" viewBox="0 0 19 18" fill="none" xmlns="http://www.w3.org/2000/svg">
  <path
    d="M10.9716 7.10256L7.15077 10.8976C6.65995 10.4101 6.35791 9.74256 6.35791 9.00006C6.35791 7.51506 7.56607 6.31506 9.06117 6.31506C9.80873 6.31506 10.4808 6.61506 10.9716 7.10256Z"
    stroke="#87898E" stroke-width="1.5" stroke-linecap="round" stroke-linejoin="round" />
  <path
    d="M13.456 4.32749C12.1345 3.33749 10.6243 2.79749 9.06128 2.79749C6.39577 2.79749 3.91149 4.35749 2.1823 7.05749C1.50271 8.11499 1.50271 9.89249 2.1823 10.95C2.77883 11.88 3.47353 12.6825 4.22863 13.3275"
    stroke="#87898E" stroke-width="1.5" stroke-linecap="round" stroke-linejoin="round" />
  <path
    d="M6.35791 14.6475C7.21873 15.0075 8.1324 15.2025 9.06117 15.2025C11.7267 15.2025 14.211 13.6425 15.9402 10.9425C16.6197 9.88501 16.6197 8.10751 15.9402 7.05001C15.691 6.66001 15.4191 6.29251 15.1397 5.94751"
    stroke="#87898E" stroke-width="1.5" stroke-linecap="round" stroke-linejoin="round" />
  <path d="M11.7117 9.52496C11.5153 10.5825 10.647 11.445 9.58228 11.64" stroke="#87898E" stroke-width="1.5"
    stroke-linecap="round" stroke-linejoin="round" />
  <path d="M7.15087 10.8975L1.51025 16.5" stroke="#87898E" stroke-width="1.5" stroke-linecap="round"
    stroke-linejoin="round" />
  <path d="M16.6123 1.5L10.9717 7.1025" stroke="#87898E" stroke-width="1.5" stroke-linecap="round"
    stroke-linejoin="round" />
</svg>