<svg width="17" height="14" viewBox="0 0 17 14" fill="none" xmlns="http://www.w3.org/2000/svg">
  <path fill-rule="evenodd" clip-rule="evenodd"
    d="M0 1.61539C0 0.723233 0.761116 0 1.7 0H13.6249C14.192 0 14.7217 0.268635 15.0373 0.716259L16.7123 3.09199C16.8999 3.35799 17 3.67094 17 3.99112V12.3846C17 13.2768 16.2389 14 15.3 14H1.7C0.761116 14 0 13.2768 0 12.3846V1.61539ZM1.7 2.15385C1.7 1.85646 1.95371 1.61538 2.26667 1.61538H13.6C13.913 1.61538 14.1667 1.85646 14.1667 2.15385V5.38462C14.1667 5.682 13.913 5.92308 13.6 5.92308H2.26667C1.95371 5.92308 1.7 5.682 1.7 5.38462V2.15385ZM9.91667 12.3846C11.325 12.3846 12.4667 11.2998 12.4667 9.96154C12.4667 8.62331 11.325 7.53846 9.91667 7.53846C8.50834 7.53846 7.36667 8.62331 7.36667 9.96154C7.36667 11.2998 8.50834 12.3846 9.91667 12.3846Z"
    fill="white" />
</svg>