<svg width="16" height="16" viewBox="0 0 16 16" fill="none" xmlns="http://www.w3.org/2000/svg">
  <mask id="path-1-inside-1_465_10943" fill="white">
    <path
      d="M0.335081 10.2911C0.759836 11.7121 1.57127 12.9871 2.67875 13.9736C3.78623 14.9602 5.14616 15.6194 6.60666 15.8777C8.06715 16.136 9.5707 15.9833 10.9494 15.4365C12.3281 14.8897 13.5276 13.9704 14.414 12.7812C15.3004 11.5921 15.8388 10.18 15.9691 8.70253C16.0993 7.2251 15.8163 5.74055 15.1516 4.41467C14.4869 3.0888 13.4667 1.97381 12.2049 1.19424C10.9432 0.414658 9.48956 0.00118798 8.00639 2.55523e-06L8.00402 2.97479C8.93567 2.97553 9.84877 3.23525 10.6413 3.72495C11.4339 4.21464 12.0748 4.91502 12.4923 5.74787C12.9098 6.58072 13.0876 7.51325 13.0058 8.4413C12.924 9.36935 12.5858 10.2564 12.029 11.0033C11.4722 11.7503 10.7187 12.3278 9.85266 12.6712C8.98664 13.0147 8.04218 13.1107 7.12477 12.9484C6.20736 12.7861 5.35311 12.372 4.65745 11.7523C3.96178 11.1327 3.45208 10.3318 3.18527 9.43914L0.335081 10.2911Z" />
  </mask>
  <path
    d="M0.335081 10.2911C0.759836 11.7121 1.57127 12.9871 2.67875 13.9736C3.78623 14.9602 5.14616 15.6194 6.60666 15.8777C8.06715 16.136 9.5707 15.9833 10.9494 15.4365C12.3281 14.8897 13.5276 13.9704 14.414 12.7812C15.3004 11.5921 15.8388 10.18 15.9691 8.70253C16.0993 7.2251 15.8163 5.74055 15.1516 4.41467C14.4869 3.0888 13.4667 1.97381 12.2049 1.19424C10.9432 0.414658 9.48956 0.00118798 8.00639 2.55523e-06L8.00402 2.97479C8.93567 2.97553 9.84877 3.23525 10.6413 3.72495C11.4339 4.21464 12.0748 4.91502 12.4923 5.74787C12.9098 6.58072 13.0876 7.51325 13.0058 8.4413C12.924 9.36935 12.5858 10.2564 12.029 11.0033C11.4722 11.7503 10.7187 12.3278 9.85266 12.6712C8.98664 13.0147 8.04218 13.1107 7.12477 12.9484C6.20736 12.7861 5.35311 12.372 4.65745 11.7523C3.96178 11.1327 3.45208 10.3318 3.18527 9.43914L0.335081 10.2911Z"
    stroke="#45B020" stroke-width="6" mask="url(#path-1-inside-1_465_10943)" />
</svg>