<svg width="47" height="15" xmlns="http://www.w3.org/2000/svg" fill="none">

 <g>
  <title>Layer 1</title>
  <path id="svg_1" fill="#F27024" d="m16.04116,9.25069c-0.41,1.64991 -1.269,2.98501 -2.585,3.99591c-1.306,1.011 -2.8037,1.5164 -4.5108,1.5164c-2.0504,0 -3.7957,-0.7057 -5.2357,-2.1076c-1.4401,-1.4115 -2.1649,-3.14721 -2.1649,-5.19764c0,-2.04089 0.7153,-3.76707 2.1458,-5.17852c1.4305,-1.39239 3.1662,-2.07905 5.2167,-2.07905c2.6699,0.00001 4.7299,1.09675 6.1799,3.29977c0.505,0.76295 0.82,1.5259 0.954,2.29838l-3.758,0c-0.62,-1.6308 -1.7547,-2.44144 -3.3855,-2.44144c-1.1063,0 -2.0122,0.41009 -2.7275,1.23026c-0.6867,0.79156 -1.03,1.74525 -1.03,2.86106c0,1.13489 0.3433,2.09812 1.03,2.89918c0.7248,0.8488 1.6403,1.278 2.7466,1.278c1.5354,0 2.6514,-0.7916 3.3664,-2.37471l3.758,0z"/>
  <path id="svg_2" fill="#F27024" d="m24.57716,14.5056l-3.243,-4.53004l-0.038,0l0,4.53004l-3.433,0l0,-14.03831l4.435,0c0.467,0 0.848,0.00953 1.125,0.02861c0.42,0.01907 0.801,0.05722 1.135,0.12398c0.839,0.14305 1.526,0.42916 2.069,0.85831c1.154,0.92508 1.727,2.20302 1.727,3.83383c0,1.11582 -0.306,2.07904 -0.916,2.88014c-0.639,0.84878 -1.497,1.36377 -2.575,1.53544l3.805,4.778l-4.091,0l0,0zm-0.353,-10.46198c-0.4,-0.28611 -0.944,-0.4387 -1.621,-0.4387l-1.307,0l0,3.91012l1.269,0c1.564,0 2.355,-0.66758 2.355,-2.01228c0,-0.63897 -0.229,-1.12535 -0.696,-1.45914z"/>
  <path id="svg_3" fill="#F27024" d="m41.72316,14.5056l0.115,-10.50967l-0.038,-0.03815l-2.995,10.54782l-2.375,0l-3.004,-10.54782l-0.038,0.03815l0.115,10.50967l-3.3,0l0,-14.03831l4.616,0l2.784,9.24123l0.039,0l2.746,-9.24123l4.616,0l0,14.03831l-3.281,0z"/>
 </g>
</svg>