<svg width="178" height="41" viewBox="0 0 178 41" fill="none" xmlns="http://www.w3.org/2000/svg">
    <path
        d="M148.93 22.2507C148.52 23.9006 147.661 25.2357 146.345 26.2466C145.039 27.2576 143.541 27.763 141.834 27.763C139.784 27.763 138.039 27.0573 136.598 25.6554C135.158 24.2439 134.434 22.5082 134.434 20.4578C134.434 18.4169 135.149 16.6907 136.579 15.2792C138.01 13.8869 139.746 13.2002 141.796 13.2002C144.466 13.2002 146.526 14.2969 147.976 16.5C148.481 17.2629 148.796 18.0259 148.93 18.7983H145.172C144.552 17.1675 143.417 16.3569 141.787 16.3569C140.68 16.3569 139.774 16.767 139.059 17.5872C138.372 18.3787 138.029 19.3324 138.029 20.4482C138.029 21.5831 138.372 22.5463 139.059 23.3474C139.784 24.1962 140.699 24.6254 141.806 24.6254C143.341 24.6254 144.457 23.8338 145.172 22.2507H148.93Z"
        fill="#F27024" />
    <path
        d="M157.466 27.5056L154.223 22.9756H154.185V27.5056H150.752V13.4673H155.187C155.654 13.4673 156.035 13.4768 156.312 13.4959C156.732 13.515 157.113 13.5531 157.447 13.6199C158.286 13.7629 158.973 14.049 159.516 14.4782C160.67 15.4033 161.243 16.6812 161.243 18.312C161.243 19.4278 160.937 20.3911 160.327 21.1922C159.688 22.0409 158.83 22.5559 157.752 22.7276L161.557 27.5056H157.466ZM157.113 17.0436C156.713 16.7575 156.169 16.6049 155.492 16.6049H154.185V20.515H155.454C157.018 20.515 157.809 19.8475 157.809 18.5028C157.809 17.8638 157.58 17.3774 157.113 17.0436Z"
        fill="#F27024" />
    <path
        d="M174.612 27.5056L174.727 16.9959L174.689 16.9578L171.694 27.5056H169.319L166.315 16.9578L166.277 16.9959L166.392 27.5056H163.092V13.4673H167.708L170.492 22.7085H170.531L173.277 13.4673H177.893V27.5056H174.612Z"
        fill="#F27024" />
    <path
        d="M10.9506 28.7071C10.9506 28.7071 10.922 12.1701 10.9506 8.78455C10.9888 5.39895 11.952 2.57604 15.0038 0.926156C18.0556 -0.723725 25.0556 -0.933536 26.7246 6.88671C26.7246 6.88671 29.8241 5.37034 33.162 7.02976C36.4999 8.68918 37.5013 11.3977 37.7111 13.7628C37.9304 16.1279 36.9386 19.1511 32.7328 21.583C28.5271 24.0054 23.5297 26.9046 20.7164 28.5259C17.903 30.1472 14.4792 32.3597 12.1809 33.5041C9.88247 34.6486 6.85928 35.9551 3.03499 33.0559C-0.713001 30.2139 -1.32336 23.8051 3.16851 20.5435C3.16851 20.5435 -0.68439 17.9018 0.107171 12.7042C0.898732 7.5066 5.83884 5.75182 9.45331 6.43847L9.33887 9.56657C9.33887 9.56657 7.39335 8.88945 5.33338 10.1006C3.27341 11.3118 2.71074 14.0108 3.57859 16.1184C4.44645 18.2356 6.96419 18.6361 7.6127 19.6947C8.27074 20.7533 7.63177 21.5067 6.30614 22.222C4.97098 22.9373 2.91101 24.3392 3.20666 27.515C3.5023 30.6908 7.43149 32.6172 10.4547 30.872C13.4779 29.1267 28.7178 20.4482 31.3309 18.8555C33.9345 17.2628 34.4781 15.7465 34.5544 14.4495C34.6307 13.1524 34.2015 11.3977 32.4563 10.2055C30.7015 9.01343 28.5175 9.37583 27.2587 10.1197C25.9998 10.8636 25.3131 11.4358 24.3404 10.854C23.3676 10.2628 23.6537 9.01343 23.6633 8.2028C23.6728 7.38262 23.6347 5.72321 21.9562 4.19731C20.2777 2.6714 17.388 2.52835 15.452 4.51202C14.3267 5.59923 14.155 6.97254 14.155 9.18509V26.7997L10.9506 28.7071Z"
        fill="#0070EA" />
    <path d="M15.7383 9.56665L29.8815 17.7493L26.7725 19.5994L15.7383 13.2288V9.56665Z" fill="#0070EA" />
    <path
        d="M35.7279 21.6499C35.7279 21.6499 38.6844 24.4537 37.3874 29.0314C36.0903 33.6092 30.9976 35.9171 26.7442 34.0955C26.7442 34.0955 26.3246 37.9103 23.0725 39.8367C19.8204 41.7632 14.2032 41.8586 11.4375 35.7168L14.2032 34.1909C14.2032 34.1909 15.1473 38.1678 19.1433 37.8626C23.1393 37.5574 23.6924 34.1051 23.6638 33.0083C23.6256 31.9116 23.473 30.6623 24.36 30.1282C25.2469 29.5941 26.0194 30.1377 27.5071 30.996C28.9949 31.8544 32.3805 31.9211 33.8396 29.4225C35.2988 26.9238 34.3546 24.4061 33.029 23.2902L35.7279 21.6499Z"
        fill="#0070EA" />
    <path d="M15.7383 15.0789L25.2084 20.5435L15.7383 25.989V15.0789Z" fill="#F27024" />
    <path
        d="M69.7836 27.286C69.4021 26.4277 64.9675 16.0325 64.1092 13.8963C63.9757 13.5625 63.7182 13.4385 63.3653 13.4385H63.3558C62.1541 13.448 60.962 13.448 59.7604 13.448C59.6936 13.4385 59.6268 13.429 59.5696 13.429C59.2072 13.429 58.9879 13.6483 58.8353 14.0107C57.6432 16.8908 56.4511 19.771 55.2494 22.6511C55.0873 23.0326 55.0682 23.395 55.2685 23.7479H55.2589C55.8502 24.8541 56.4415 25.97 57.0423 27.0762C57.2617 27.4768 57.6146 27.6198 58.0533 27.5245C58.5492 27.3909 63.9947 24.2056 64.2427 23.9195C63.2985 23.9195 60.8094 23.9863 58.6732 23.9767C59.0832 22.8037 59.6268 21.6784 60.1037 20.5244C60.5519 19.4372 61.0288 18.3595 61.5056 17.2819C62.8312 20.41 64.8244 25.0639 65.7209 27.2193C65.8353 27.4959 65.9498 27.658 66.2931 27.6484C67.3803 27.6198 68.4675 27.6294 69.5547 27.6389C69.8599 27.6389 69.9076 27.5626 69.7836 27.286Z"
        fill="#0070EA" />
    <path
        d="M53.0759 26.3037C52.4274 26.8568 51.7121 27.2192 50.9206 27.3718C50.5963 27.4386 50.2053 27.4863 49.7666 27.5053C49.5854 27.5149 49.3756 27.5149 49.1467 27.5244H44.0254V13.4575H48.3551C48.8987 13.4575 49.3088 13.4671 49.5949 13.4861C50.0432 13.5147 50.4437 13.5624 50.7775 13.6387C51.6167 13.8295 52.3034 14.23 52.847 14.8213C53.4001 15.4317 53.6767 16.2041 53.6767 17.1388C53.6767 18.4072 53.1331 19.3513 52.0459 19.9617C53.5909 20.4957 54.3634 21.5829 54.3634 23.2233C54.3634 24.5489 53.9342 25.5694 53.0759 26.3037ZM49.8238 16.8145C49.6045 16.681 49.2707 16.6142 48.8415 16.6142H47.4587V18.7982H48.8224C49.7761 18.7982 50.253 18.4262 50.253 17.6728C50.2434 17.2723 50.1099 16.9862 49.8238 16.8145ZM50.4056 22.0216C50.129 21.869 49.7475 21.8023 49.2516 21.8023H47.4491V24.3582H49.2325C49.738 24.3582 50.129 24.2628 50.4056 24.0816C50.7489 23.8527 50.911 23.4999 50.911 23.0135C50.9206 22.5557 50.7489 22.2219 50.4056 22.0216Z"
        fill="#0070EA" />
    <path d="M75.3631 16.6142V27.5149H71.7772V16.6142H69.002L69.927 13.4575H78.1192V16.6142H75.3631Z" fill="#0070EA" />
    <path d="M88.3711 16.6237V27.5149H84.7852V16.6237H80.9609L82.0195 13.4766H91.1272V16.6237H88.3711Z"
        fill="#0070EA" />
    <path
        d="M93.377 27.5149V13.4766H101.178V16.6237H96.8198V18.8077H101.045V21.9548H96.8198V24.3677H101.178V27.5149H93.377Z"
        fill="#0070EA" />
    <path
        d="M117.602 22.2602C117.191 23.9101 116.333 25.2453 115.017 26.2657C113.71 27.2766 112.213 27.7821 110.506 27.7821C108.456 27.7821 106.71 27.0763 105.27 25.6744C103.83 24.263 103.105 22.5272 103.105 20.4768C103.105 18.4359 103.821 16.7098 105.251 15.2983C106.682 13.9059 108.418 13.2097 110.468 13.2097C113.138 13.2097 115.198 14.3065 116.648 16.5095C117.153 17.2724 117.468 18.0354 117.602 18.8079H113.844C113.224 17.1771 112.089 16.3664 110.458 16.3664C109.352 16.3664 108.446 16.7765 107.721 17.5967C107.035 18.3882 106.691 19.3419 106.691 20.4577C106.691 21.5831 107.035 22.5559 107.721 23.357C108.446 24.2057 109.362 24.6349 110.468 24.6349C112.003 24.6349 113.119 23.8433 113.844 22.2602H117.602Z"
        fill="#0070EA" />
    <path
        d="M127.978 13.4768V18.7603H124.592C124.182 18.7603 123.781 18.7221 123.381 18.6649V13.4768H119.795V17.2248V18.2071V27.5151H123.381V21.8979H127.243C127.491 21.8979 127.739 21.936 127.978 21.9646V27.5056H131.563V23.6241V22.6418V13.4673H127.978V13.4768Z"
        fill="#0070EA" />
</svg>