<svg width="38" height="41" viewBox="0 0 38 41" fill="none" xmlns="http://www.w3.org/2000/svg">
  <path
    d="M10.9506 28.707C10.9506 28.707 10.922 12.1701 10.9506 8.78453C10.9887 5.39894 11.952 2.57603 15.0038 0.926154C18.0555 -0.723723 25.0556 -0.933535 26.7246 6.88669C26.7246 6.88669 29.824 5.37033 33.1619 7.02975C36.4998 8.68916 37.5012 11.3976 37.711 13.7628C37.9304 16.1279 36.9385 19.1511 32.7328 21.583C28.527 24.0054 23.5297 26.9046 20.7163 28.5258C17.903 30.1471 14.4792 32.3597 12.1808 33.5041C9.88246 34.6485 6.85927 35.9551 3.03499 33.0559C-0.713 30.2139 -1.32336 23.8051 3.1685 20.5435C3.1685 20.5435 -0.684389 17.9018 0.107171 12.7042C0.89873 7.50659 5.83883 5.75181 9.4533 6.43846L9.33886 9.56655C9.33886 9.56655 7.39334 8.88944 5.33337 10.1006C3.27341 11.3118 2.71073 14.0107 3.57859 16.1184C4.44644 18.2356 6.96418 18.6361 7.61268 19.6947C8.27073 20.7533 7.63176 21.5067 6.30613 22.222C4.97097 22.9372 2.91101 24.3392 3.20665 27.5149C3.50229 30.6907 7.43148 32.6172 10.4547 30.8719C13.4779 29.1267 28.7178 20.4481 31.3309 18.8555C33.9344 17.2628 34.478 15.7464 34.5543 14.4494C34.6306 13.1524 34.2015 11.3976 32.4562 10.2055C30.7014 9.01342 28.5175 9.37582 27.2586 10.1197C25.9998 10.8636 25.3131 11.4358 24.3403 10.854C23.3676 10.2627 23.6537 9.01342 23.6632 8.20278C23.6728 7.38261 23.6346 5.7232 21.9561 4.1973C20.2776 2.6714 17.388 2.52835 15.452 4.51202C14.3266 5.59922 14.155 6.97253 14.155 9.18508V26.7997L10.9506 28.707Z"
    fill="#0070EA" />
  <path d="M15.7412 9.56689L29.8844 17.7495L26.7754 19.5997L15.7412 13.2291V9.56689Z" fill="#0070EA" />
  <path
    d="M35.7259 21.6497C35.7259 21.6497 38.6824 24.4535 37.3854 29.0312C36.0883 33.6089 30.9957 35.9168 26.7422 34.0953C26.7422 34.0953 26.3226 37.91 23.0705 39.8365C19.8185 41.7629 14.2012 41.8583 11.4355 35.7165L14.2012 34.1906C14.2012 34.1906 15.1454 38.1675 19.1413 37.8623C23.1373 37.5571 23.6904 34.1048 23.6618 33.0081C23.6237 31.9113 23.4711 30.662 24.358 30.1279C25.2449 29.5939 26.0174 30.1375 27.5052 30.9958C28.9929 31.8541 32.3785 31.9209 33.8376 29.4222C35.2968 26.9235 34.3526 24.4058 33.027 23.29L35.7259 21.6497Z"
    fill="#0070EA" />
  <path d="M15.7412 15.0793L25.2113 20.544L15.7412 25.9895V15.0793Z" fill="#F27024" />
</svg>