<svg width="134" height="15" viewBox="0 0 134 15" fill="none" xmlns="http://www.w3.org/2000/svg">
    <path
        d="M104.93 9.25069C104.52 10.9006 103.661 12.2357 102.345 13.2466C101.039 14.2576 99.5413 14.763 97.8342 14.763C95.7838 14.763 94.0385 14.0573 92.5985 12.6554C91.1584 11.2439 90.4336 9.50819 90.4336 7.45776C90.4336 5.41687 91.1489 3.69069 92.5794 2.27924C94.0099 0.886851 95.7456 0.200195 97.7961 0.200195C100.466 0.200195 102.526 1.29694 103.976 3.49996C104.481 4.26291 104.796 5.02586 104.93 5.79834H101.172C100.552 4.16754 99.4173 3.3569 97.7865 3.3569C96.6802 3.3569 95.7743 3.76699 95.059 4.58716C94.3723 5.37872 94.029 6.33241 94.029 7.44822C94.029 8.58311 94.3723 9.54634 95.059 10.3474C95.7838 11.1962 96.6993 11.6254 97.8056 11.6254C99.341 11.6254 100.457 10.8338 101.172 9.25069H104.93Z"
        fill="#F27024" />
    <path
        d="M113.466 14.5056L110.223 9.97556H110.185V14.5056H106.752V0.467285H111.187C111.654 0.467285 112.035 0.476822 112.312 0.495896C112.732 0.514969 113.113 0.553117 113.447 0.619875C114.286 0.762928 114.973 1.04904 115.516 1.47819C116.67 2.40327 117.243 3.68121 117.243 5.31202C117.243 6.42784 116.937 7.39106 116.327 8.19216C115.688 9.04094 114.83 9.55593 113.752 9.7276L117.557 14.5056H113.466V14.5056ZM113.113 4.04362C112.713 3.75751 112.169 3.60492 111.492 3.60492H110.185V7.51504H111.454C113.018 7.51504 113.809 6.84746 113.809 5.50276C113.809 4.86379 113.58 4.37741 113.113 4.04362Z"
        fill="#F27024" />
    <path
        d="M130.612 14.5056L130.727 3.99593L130.689 3.95778L127.694 14.5056H125.319L122.315 3.95778L122.277 3.99593L122.392 14.5056H119.092V0.467285H123.708L126.492 9.70852H126.531L129.277 0.467285H133.893V14.5056H130.612Z"
        fill="#F27024" />
    <path
        d="M25.7836 14.2863C25.4021 13.428 20.9675 3.03277 20.1092 0.896506C19.9757 0.562715 19.7182 0.438736 19.3653 0.438736H19.3558C18.1541 0.448273 16.962 0.448273 15.7604 0.448273C15.6936 0.438737 15.6268 0.429199 15.5696 0.429199C15.2072 0.429199 14.9879 0.648547 14.8353 1.01095C13.6432 3.89109 12.4511 6.77122 11.2494 9.65136C11.0873 10.0328 11.0682 10.3952 11.2685 10.7481H11.2589C11.8502 11.8544 12.4415 12.9702 13.0423 14.0765C13.2617 14.477 13.6146 14.6201 14.0533 14.5247C14.5492 14.3912 19.9947 11.2059 20.2427 10.9198C19.2985 10.9198 16.8094 10.9865 14.6732 10.977C15.0832 9.80395 15.6268 8.6786 16.1037 7.52464C16.5519 6.43743 17.0288 5.35977 17.5056 4.2821C18.8312 7.4102 20.8244 12.0642 21.7209 14.2195C21.8353 14.4961 21.9498 14.6582 22.2931 14.6487C23.3803 14.6201 24.4675 14.6296 25.5547 14.6392C25.8599 14.6392 25.9076 14.5629 25.7836 14.2863Z"
        fill="#0070EA" />
    <path
        d="M9.07589 13.3037C8.42738 13.8568 7.71212 14.2192 6.92056 14.3718C6.5963 14.4386 6.20529 14.4863 5.76659 14.5053C5.58539 14.5149 5.37558 14.5149 5.1467 14.5244H0.0253906V0.45752H4.35514C4.89874 0.45752 5.30882 0.467057 5.59493 0.486131C6.04316 0.514741 6.44371 0.562426 6.7775 0.638721C7.61675 0.829458 8.3034 1.23001 8.847 1.82129C9.40014 2.43165 9.67672 3.20414 9.67672 4.13875C9.67672 5.40716 9.13311 6.35131 8.04591 6.96167C9.59089 7.49574 10.3634 8.58294 10.3634 10.2233C10.3634 11.5489 9.93421 12.5694 9.07589 13.3037ZM5.82382 3.8145C5.60447 3.68098 5.27068 3.61423 4.84152 3.61423H3.45867V5.79817H4.82244C5.77613 5.79817 6.25298 5.42624 6.25298 4.67282C6.24344 4.27227 6.10992 3.98616 5.82382 3.8145ZM6.40557 9.02164C6.129 8.86905 5.74752 8.80229 5.2516 8.80229H3.44913V11.3582H5.23253C5.73798 11.3582 6.129 11.2628 6.40557 11.0816C6.74889 10.8527 6.91102 10.4999 6.91102 10.0135C6.92056 9.5557 6.74889 9.22191 6.40557 9.02164Z"
        fill="#0070EA" />
    <path d="M31.3631 3.61423V14.5149H27.7772V3.61423H25.002L25.927 0.45752H34.1192V3.61423H31.3631Z" fill="#0070EA" />
    <path d="M44.3711 3.62373V14.5149H40.7852V3.62373H36.9609L38.0195 0.476562H47.1272V3.62373H44.3711Z"
        fill="#0070EA" />
    <path
        d="M49.377 14.5149V0.476562H57.1781V3.62373H52.8198V5.80768H57.0446V8.95485H52.8198V11.3677H57.1781V14.5149H49.377Z"
        fill="#0070EA" />
    <path
        d="M73.6015 9.25997C73.1914 10.9099 72.3331 12.245 71.017 13.2655C69.7105 14.2764 68.2132 14.7818 66.5061 14.7818C64.4557 14.7818 62.7104 14.0761 61.2703 12.6742C59.8303 11.2627 59.1055 9.527 59.1055 7.47657C59.1055 5.43568 59.8207 3.70951 61.2513 2.29805C62.6818 0.905665 64.4175 0.209473 66.4679 0.209473C69.1383 0.209473 71.1982 1.30621 72.6478 3.50923C73.1533 4.27218 73.468 5.03513 73.6015 5.80762H69.844C69.2241 4.17681 68.0892 3.36618 66.4584 3.36618C65.3521 3.36618 64.4461 3.77627 63.7213 4.59644C63.0347 5.388 62.6913 6.34169 62.6913 7.4575C62.6913 8.58285 63.0347 9.55562 63.7213 10.3567C64.4461 11.2055 65.3617 11.6347 66.4679 11.6347C68.0034 11.6347 69.1192 10.8431 69.844 9.25997H73.6015V9.25997Z"
        fill="#0070EA" />
    <path
        d="M83.9776 0.476822V5.76025H80.592C80.1819 5.76025 79.7813 5.72211 79.3808 5.66488V0.476822H75.7949V4.22482V5.20711V14.5151H79.3808V8.89789H83.2432C83.4912 8.89789 83.7391 8.93604 83.9776 8.96465V14.5056H87.5634V10.6241V9.64176V0.467285H83.9776V0.476822Z"
        fill="#0070EA" />
</svg>