<svg width="18" height="14" viewBox="0 0 18 14" fill="none" xmlns="http://www.w3.org/2000/svg">
  <path fill-rule="evenodd" clip-rule="evenodd"
    d="M9.06142 5.06506C7.97573 5.06506 7.10815 5.93406 7.10815 7.00006C7.10815 7.54824 7.25697 7.94336 7.68103 8.36692C8.01913 8.70462 8.50023 8.85016 9.0498 8.81854C9.60696 8.78649 10.1556 8.5732 10.5208 8.29834C10.6857 8.17424 10.8786 7.9525 11.0293 7.6828C11.1828 7.40841 11.25 7.16112 11.25 7C11.25 6.74 11.1062 6.42578 10.8818 6.12076C10.7777 5.97928 10.6723 5.86152 10.5931 5.77956C10.5539 5.73899 10.5222 5.70826 10.5017 5.68892C10.4914 5.67927 10.484 5.67253 10.48 5.6689L10.4769 5.6661L10.4776 5.66669L10.4781 5.66711L10.4783 5.66734C10.4778 5.66687 10.4773 5.66639 10.4767 5.66591C10.4653 5.65584 10.4541 5.64543 10.4433 5.63469C10.0871 5.28092 9.60283 5.06506 9.06142 5.06506ZM11.4857 4.55594L11.4867 4.55687C11.4978 4.56687 11.5125 4.58039 11.5304 4.59724C11.5661 4.63088 11.6146 4.67808 11.6718 4.73727C11.7854 4.85482 11.9371 5.02393 12.09 5.23181C12.3797 5.62551 12.75 6.26 12.75 7C12.75 7.50317 12.5672 8.00588 12.3386 8.41481C12.1074 8.82843 11.7862 9.22333 11.4229 9.49678C10.8162 9.95343 9.98232 10.2674 9.13595 10.3161C8.28199 10.3652 7.3386 10.145 6.62099 9.4282C5.90862 8.71666 5.60815 7.93689 5.60815 7.00006C5.60815 5.09606 7.15691 3.56506 9.06142 3.56506C10.0077 3.56506 10.8615 3.94324 11.4857 4.55594Z"
    fill="#87898E" />
  <path fill-rule="evenodd" clip-rule="evenodd"
    d="M1.55128 4.65251C3.38248 1.79351 6.08046 0.0474854 9.06153 0.0474854C10.8029 0.0474854 12.4683 0.650174 13.9059 1.72725C13.9145 1.73367 13.9229 1.74026 13.9312 1.74704C14.3011 2.0497 14.8677 2.57162 15.3986 3.17944C15.9168 3.77271 16.4634 4.51783 16.7118 5.26283C16.7357 5.33463 16.7624 5.41123 16.7908 5.49238C17.0298 6.17665 17.3817 7.18421 17.1052 8.35932C16.7917 9.69138 15.7331 11.0793 13.416 12.624C13.3901 12.6413 13.3632 12.6569 13.3354 12.6708C11.6363 13.5204 9.45292 13.5559 7.66809 13.3029C6.76222 13.1745 5.92117 12.9665 5.2453 12.7259C4.90773 12.6057 4.60009 12.4733 4.34125 12.3323C4.11561 12.2093 3.88183 12.0558 3.7036 11.865C2.90329 11.1745 2.17441 10.3264 1.55125 9.35492C1.11543 8.67644 0.922852 7.81739 0.922852 7.00374C0.922852 6.19006 1.11544 5.33099 1.55128 4.65251ZM9.06153 1.54749C6.71174 1.54749 4.44129 2.92126 2.81412 5.46197L2.81349 5.46296C2.56997 5.8419 2.42285 6.40011 2.42285 7.00374C2.42285 7.60736 2.56997 8.16557 2.81349 8.54451L2.81384 8.54505C3.37385 9.41812 4.0211 10.1636 4.71599 10.7572C4.74632 10.7831 4.77453 10.8114 4.80035 10.8418C4.80018 10.8416 4.80021 10.8416 4.80045 10.8419C4.80252 10.844 4.8198 10.8621 4.86266 10.8935C4.90876 10.9273 4.9733 10.9684 5.05892 11.0151C5.23092 11.1088 5.46265 11.211 5.74849 11.3128C6.31944 11.5161 7.06135 11.7019 7.87863 11.8177C9.52287 12.0508 11.3259 11.9811 12.624 11.3492C14.7754 9.90705 15.4596 8.80376 15.6451 8.01568C15.8164 7.28785 15.6138 6.69335 15.3721 5.98382C15.3447 5.90321 15.3167 5.82111 15.2887 5.73717C15.1371 5.28217 14.7524 4.71979 14.2689 4.16617C13.8042 3.63418 13.3059 3.17495 12.9936 2.91806C11.7916 2.02139 10.4414 1.54749 9.06153 1.54749Z"
    fill="#87898E" />
</svg>