<svg width="23" height="23" viewBox="0 0 23 23" fill="none" xmlns="http://www.w3.org/2000/svg">
  <path fill-rule="evenodd" clip-rule="evenodd"
    d="M6.05709 9.62858C5.05137 9.62858 4.22852 10.4514 4.22852 11.4571C4.22852 12.4629 5.05137 13.2857 6.05709 13.2857C7.0628 13.2857 7.88566 12.4629 7.88566 11.4571C7.88566 10.4514 7.0628 9.62858 6.05709 9.62858ZM17.0285 9.62858C16.0228 9.62858 15.1999 10.4514 15.1999 11.4571C15.1999 12.4629 16.0228 13.2857 17.0285 13.2857C18.0342 13.2857 18.8571 12.4629 18.8571 11.4571C18.8571 10.4514 18.0342 9.62858 17.0285 9.62858ZM9.71423 11.4571C9.71423 10.4514 10.5371 9.62858 11.5428 9.62858C12.5485 9.62858 13.3714 10.4514 13.3714 11.4571C13.3714 12.4629 12.5485 13.2857 11.5428 13.2857C10.5371 13.2857 9.71423 12.4629 9.71423 11.4571Z"
    fill="#5B5B5B" />
</svg>