<svg width="24" height="24" viewBox="0 0 24 24" fill="none" xmlns="http://www.w3.org/2000/svg">
  <circle cx="12" cy="12" r="11.5" fill="white" stroke="#9F9F9F" />
  <path fill-rule="evenodd" clip-rule="evenodd"
    d="M17.1433 14.1429L19.2861 14.1429L16.429 17L13.5718 14.1429L15.7147 14.1429L15.7147 7L17.1433 7L17.1433 14.1429Z"
    fill="#5B5B5B" />
  <path fill-rule="evenodd" clip-rule="evenodd"
    d="M5.71484 16.2857C5.71484 16.6802 6.03464 17 6.42913 17H11.4291C11.8236 17 12.1434 16.6802 12.1434 16.2857C12.1434 15.8912 11.8236 15.5714 11.4291 15.5714H6.42913C6.03464 15.5714 5.71484 15.8912 5.71484 16.2857Z"
    fill="#5B5B5B" />
  <path fill-rule="evenodd" clip-rule="evenodd"
    d="M5.71484 12C5.71484 12.3945 6.03464 12.7143 6.42913 12.7143H11.4291C11.8236 12.7143 12.1434 12.3945 12.1434 12C12.1434 11.6055 11.8236 11.2857 11.4291 11.2857H6.42913C6.03464 11.2857 5.71484 11.6055 5.71484 12Z"
    fill="#5B5B5B" />
  <path fill-rule="evenodd" clip-rule="evenodd"
    d="M5.71484 7.71429C5.71484 8.10878 6.03464 8.42857 6.42913 8.42857H12.8577C13.2522 8.42857 13.572 8.10878 13.572 7.71429C13.572 7.3198 13.2522 7 12.8577 7H6.42913C6.03464 7 5.71484 7.3198 5.71484 7.71429Z"
    fill="#5B5B5B" />
</svg>