<svg width="35" height="35" viewBox="0 0 35 35" fill="none" xmlns="http://www.w3.org/2000/svg">
  <rect width="35" height="35" rx="6" fill="#9F9F9F" fill-opacity="0.2" />
  <path
    d="M25 9.9C22.3529 10.35 19.2647 9.9 17.5 9C15.7353 9.9 12.6471 10.35 10 9.9V19.8C10.8824 22.5 13.9706 26.1 17.5 27C21.0294 26.1 24.1176 22.5 25 19.8V9.9Z"
    fill="#9F9F9F" />
  <path fill-rule="evenodd" clip-rule="evenodd"
    d="M18.875 14.2917C18.875 15.0525 18.2608 15.6667 17.5 15.6667C16.7392 15.6667 16.125 15.0525 16.125 14.2917C16.125 13.5308 16.7392 12.9167 17.5 12.9167C18.2608 12.9167 18.875 13.5308 18.875 14.2917ZM13.375 15.6667C14.97 15.6667 16.4183 16.2854 17.5 17.2938C18.5817 16.2854 20.03 15.6667 21.625 15.6667V20.7083C20.03 20.7083 18.5817 21.3317 17.5 22.3354C16.4183 21.3271 14.97 20.7083 13.375 20.7083V15.6667Z"
    fill="white" />
</svg>