<svg width="35" height="35" viewBox="0 0 35 35" fill="none" xmlns="http://www.w3.org/2000/svg">
  <rect width="35" height="35" rx="6" fill="#F7C214" fill-opacity="0.2" />
  <path
    d="M25 9.9C22.3529 10.35 19.2647 9.9 17.5 9C15.7353 9.9 12.6471 10.35 10 9.9V19.8C10.8824 22.5 13.9706 26.1 17.5 27C21.0294 26.1 24.1176 22.5 25 19.8V9.9Z"
    fill="#F7C214" />
  <path fill-rule="evenodd" clip-rule="evenodd"
    d="M18.5837 12.625H16.417V19.125H18.5837V12.625ZM18.5837 21.2917C18.5837 21.89 18.0986 22.375 17.5003 22.375C16.902 22.375 16.417 21.89 16.417 21.2917C16.417 20.6934 16.902 20.2083 17.5003 20.2083C18.0986 20.2083 18.5837 20.6934 18.5837 21.2917Z"
    fill="white" />
</svg>