<svg width="22" height="20" viewBox="0 0 22 20" fill="none" xmlns="http://www.w3.org/2000/svg">
  <path
    d="M12.7188 0.125C12.1172 0.125 11.6875 0.597656 11.6875 1.15625V8.03125C11.6875 8.63281 12.1172 9.0625 12.7188 9.0625H20.9688C21.5273 9.0625 22 8.63281 22 8.03125V1.15625C22 0.597656 21.5273 0.125 20.9688 0.125H12.7188ZM9.28125 0.125H1.03125C0.429688 0.125 0 0.597656 0 1.15625V8.03125C0 8.63281 0.429688 9.0625 1.03125 9.0625H9.28125C9.83984 9.0625 10.3125 8.63281 10.3125 8.03125V1.15625C10.3125 0.597656 9.83984 0.125 9.28125 0.125ZM0 11.4688V18.3438C0 18.9453 0.429688 19.375 1.03125 19.375H9.28125C9.83984 19.375 10.3125 18.9453 10.3125 18.3438V11.4688C10.3125 10.9102 9.83984 10.4375 9.28125 10.4375H1.03125C0.429688 10.4375 0 10.9102 0 11.4688ZM12.7188 19.375H20.9688C21.5273 19.375 22 18.9453 22 18.3438V11.4688C22 10.9102 21.5273 10.4375 20.9688 10.4375H12.7188C12.1172 10.4375 11.6875 10.9102 11.6875 11.4688V18.3438C11.6875 18.9453 12.1172 19.375 12.7188 19.375Z"
    fill="white" />
</svg>